<?xml version="1.0" encoding="utf-8"?>
<!-- Svg Vector Icons : http://www.onlinewebfonts.com/icon -->
<!DOCTYPE svg PUBLIC "-//W3C//DTD SVG 1.1//EN" "http://www.w3.org/Graphics/SVG/1.1/DTD/svg11.dtd">
<svg version="1.1" xmlns="http://www.w3.org/2000/svg" xmlns:xlink="http://www.w3.org/1999/xlink" x="0px" y="0px" viewBox="0 0 256 256" enable-background="new 0 0 256 256" xml:space="preserve">
<metadata> Svg Vector Icons : http://www.onlinewebfonts.com/icon </metadata>
<g><g><path fill="#000000" d="M236.7,173.9c6.1-14.5,9.3-30,9.3-45.9s-3.1-31.4-9.3-45.9c-5.9-14-14.4-26.7-25.3-37.5c-10.8-10.8-23.5-19.3-37.5-25.3c-14.6-6.2-30-9.3-45.9-9.3c-15.9,0-31.4,3.1-45.9,9.3C68,25.2,55.4,33.7,44.6,44.6C33.7,55.4,25.2,68,19.3,82.1c-6.1,14.5-9.3,30-9.3,45.9s3.1,31.4,9.3,45.9c5.9,14,14.4,26.7,25.3,37.5c10.8,10.8,23.5,19.3,37.5,25.3c14.5,6.2,30,9.3,45.9,9.3s31.4-3.1,45.9-9.3c14-5.9,26.7-14.4,37.5-25.3C222.3,200.6,230.8,188,236.7,173.9z M128,236.2c-59.7,0-108.3-48.5-108.3-108.2C19.7,68.3,68.3,19.8,128,19.8c59.7,0,108.3,48.6,108.3,108.3C236.3,187.7,187.7,236.2,128,236.2z"/><path fill="#000000" d="M201.7,180.5c2-1.3,3.2-3.8,3.2-6.6V81.6c0-3.4-1.7-7.7-5.4-9.3c-7.8-3.4-16.1-5.6-24.5-6.7c-7.7-1-15.4-1-23.1,0c-7.7,1-13.8,3.5-21,6.5c-7.2-2.9-16.2-5.5-23.9-6.5c-7.7-1-15.4-1-23.1,0c-8.5,1.1-16.7,3.3-24.5,6.7c-3.7,1.6-5.4,5.9-5.4,9.3v92.3c0,2.9,1.2,5.3,3.2,6.6c1,0.7,2.2,1,3.4,1c0.9,0,1.8-0.2,2.6-0.6c7.1-3.1,14.5-5.1,22.2-6c13.4-1.7,39.5,5.8,40.2,6c1.2,0.3,2.2,0.6,3.4,0.6c0.9,0,1.8-0.2,2.6-0.6c13.1-5.7,27.6-7.8,41.9-6c7.6,0.9,15.1,3,22.2,6C197.7,181.9,199.9,181.7,201.7,180.5z M195.2,170.3c-6.6-2.5-13.5-4.1-20.5-5c-15.4-1.9-31,0.2-45.3,6c-14.3-5.9-29.9-7.9-45.3-6c-7,0.9-13.9,2.6-20.5,5V81.6c0-0.2,0.1-0.5,0.1-0.7c6.8-2.9,14-4.8,21.3-5.7c6.8-0.9,13.8-0.8,20.6,0c7.2,0.9,14.2,2.8,20.8,5.6v70.6c0,2.8,2.3,5.1,5.1,5.1c2.8,0,5.1-2.3,5.1-5.1l0-70.8c5.3-1.9,10.9-4.7,16.5-5.5c6.8-0.9,13.8-0.9,20.6,0c7.3,0.9,14.5,2.8,21.3,5.7c0.1,0.2,0.1,0.4,0.1,0.7V170.3z"/></g></g>
</svg>